<?xml version="1.0" standalone="no"?>
<!DOCTYPE svg PUBLIC "-//W3C//DTD SVG 20010904//EN"
 "http://www.w3.org/TR/2001/REC-SVG-20010904/DTD/svg10.dtd">
<svg version="1.0" xmlns="http://www.w3.org/2000/svg"
 width="2048.000000pt" height="2048.000000pt" viewBox="0 0 2048.000000 2048.000000"
 preserveAspectRatio="xMidYMid meet">
<metadata>
Created by potrace 1.11, written by Peter Selinger 2001-2013
</metadata>
<g transform="translate(0.000000,2048.000000) scale(0.100000,-0.100000)"
fill="#000000" stroke="none">
<path d="M19624 18045 c-68 -34 -270 -188 -454 -346 -187 -162 -296 -244 -675
-509 -159 -112 -351 -248 -425 -303 -265 -197 -737 -505 -898 -586 -42 -21
-128 -74 -190 -116 -193 -131 -243 -145 -506 -145 -224 0 -325 12 -384 45
-110 62 -281 201 -322 264 -12 18 -30 26 -75 33 -72 11 -145 43 -223 97 -58
40 -81 49 -209 75 -94 19 -143 41 -261 120 -123 80 -208 123 -270 136 -48 11
-101 47 -233 159 -35 30 -91 66 -125 81 -33 15 -70 40 -81 56 -20 28 -22 28
-58 15 -31 -11 -41 -10 -70 4 -19 8 -97 25 -172 36 -76 10 -184 29 -240 40
-89 18 -112 19 -190 10 -48 -6 -324 -15 -613 -21 -533 -10 -712 -16 -785 -26
-46 -7 -243 -96 -361 -164 -44 -25 -105 -56 -135 -67 -74 -29 -406 -127 -501
-148 -89 -19 -154 -56 -259 -144 -41 -34 -97 -73 -126 -87 -59 -28 -86 -61
-86 -106 0 -33 -15 -42 -78 -53 -44 -7 -72 -36 -88 -93 -16 -56 -82 -129 -129
-141 -19 -6 -47 -22 -61 -35 -17 -16 -47 -30 -80 -36 -29 -5 -80 -22 -114 -36
-34 -15 -89 -35 -122 -46 -82 -27 -139 -55 -166 -84 l-23 -25 22 -6 c36 -9 23
-37 -21 -44 -20 -3 -45 -13 -55 -22 -10 -9 -41 -21 -69 -27 -33 -7 -99 -40
-185 -92 -73 -44 -223 -124 -333 -178 -110 -54 -235 -121 -278 -149 -275 -180
-517 -428 -613 -627 -53 -111 -45 -130 38 -88 117 59 327 183 768 454 140 86
291 176 335 202 630 360 890 494 1156 592 155 57 251 83 356 95 93 12 163 29
270 65 160 55 359 69 430 32 45 -23 101 -20 306 15 180 30 182 31 250 14 58
-14 96 -16 221 -10 216 10 286 -10 286 -80 0 -22 9 -40 30 -60 17 -16 30 -39
30 -52 0 -92 -193 -304 -412 -451 -91 -61 -502 -295 -584 -333 -33 -15 -119
-46 -190 -68 -207 -64 -244 -79 -339 -135 -187 -111 -358 -186 -426 -186 -24
0 -43 -12 -90 -60 -32 -33 -65 -60 -73 -60 -8 0 -72 -29 -143 -65 -127 -65
-223 -95 -258 -81 -17 6 -17 8 5 31 27 28 93 53 168 62 60 7 109 35 132 75 12
22 12 30 2 40 -18 18 -111 15 -149 -5 -18 -9 -47 -24 -65 -34 -17 -9 -76 -27
-131 -40 -164 -38 -308 -114 -405 -213 -29 -29 -58 -50 -71 -50 -21 0 -21 1
-5 25 9 14 14 32 10 40 -14 39 -133 -2 -161 -55 -12 -23 -27 -33 -73 -46 -101
-28 -126 -36 -165 -56 -41 -21 -48 -38 -15 -38 43 0 -5 -30 -113 -71 -79 -30
-111 -47 -134 -74 -22 -26 -43 -37 -80 -45 -27 -6 -96 -33 -151 -60 -56 -28
-107 -50 -113 -50 -6 0 -23 8 -38 17 -17 12 -53 18 -114 21 -125 6 -189 -4
-241 -37 -32 -21 -61 -31 -113 -36 -112 -11 -185 -51 -153 -83 9 -9 6 -18 -10
-35 -34 -36 -171 -105 -242 -121 -61 -14 -90 -34 -90 -61 0 -11 -41 -35 -60
-35 -6 0 -10 12 -10 26 0 26 -2 26 -43 21 -23 -3 -83 -24 -134 -47 -50 -22
-115 -45 -144 -50 -83 -16 -91 -39 -20 -57 l34 -9 -42 -27 c-51 -34 -59 -34
-72 -1 -9 26 -11 27 -72 21 -131 -13 -291 -85 -338 -153 -33 -49 -35 -50 -158
-74 -98 -20 -208 -66 -287 -121 -70 -48 -255 -132 -384 -174 -63 -21 -158 -59
-211 -86 -137 -68 -298 -136 -368 -154 -33 -8 -112 -38 -177 -65 -64 -28 -161
-61 -215 -75 -54 -13 -147 -47 -206 -74 -60 -28 -129 -55 -155 -60 -26 -6
-104 -36 -172 -66 -144 -64 -231 -88 -372 -105 -309 -36 -565 -122 -821 -276
-67 -41 -130 -74 -140 -74 -10 0 -43 12 -73 26 -152 71 -251 94 -415 94 -206
0 -306 -34 -525 -178 -265 -173 -387 -309 -466 -520 -45 -120 -70 -251 -95
-498 -25 -251 -47 -340 -134 -561 -105 -264 -152 -404 -185 -555 -23 -108 -52
-163 -129 -255 -92 -108 -227 -307 -272 -399 -42 -86 -89 -252 -89 -313 0 -20
6 -58 14 -86 63 -236 326 -423 711 -506 123 -26 195 -26 349 0 193 34 331 42
696 42 408 0 1059 -37 1210 -69 48 -10 122 -109 200 -267 77 -156 100 -247
107 -435 6 -170 -3 -230 -53 -329 -67 -134 -159 -212 -370 -312 -446 -212
-584 -285 -782 -416 -137 -91 -296 -217 -351 -279 -61 -70 -92 -143 -98 -233
-10 -147 40 -277 155 -402 64 -68 192 -168 239 -186 10 -4 67 -33 126 -66 132
-72 471 -232 587 -277 47 -18 162 -56 255 -85 94 -29 222 -71 285 -93 160 -57
275 -74 495 -74 218 0 395 20 655 72 323 65 479 112 1112 334 246 86 381 119
943 231 597 119 842 143 1135 110 452 -51 703 -128 940 -286 206 -138 286
-290 339 -644 35 -229 45 -383 45 -685 0 -299 -6 -358 -47 -555 -21 -95 -34
-279 -48 -657 -14 -352 -10 -399 40 -519 52 -125 131 -231 228 -308 116 -93
237 -155 334 -171 96 -16 622 -7 839 14 390 39 676 87 899 151 68 19 174 42
235 50 194 27 365 55 577 95 114 21 320 55 459 75 302 43 585 93 798 140 368
81 721 167 919 223 368 106 484 133 703 163 200 27 406 63 590 104 205 46 708
184 840 230 58 21 148 53 200 71 52 18 167 52 255 74 254 65 552 171 920 327
343 146 465 249 465 394 0 19 -11 88 -25 154 -42 210 -110 694 -150 1075 -53
497 -170 1485 -216 1815 -16 116 -43 332 -60 480 -42 380 -59 486 -150 955
-79 405 -130 681 -224 1200 -57 314 -122 629 -179 860 -24 96 -46 203 -50 237
-3 35 -13 79 -21 99 -39 95 -9 147 129 221 55 29 110 63 123 75 28 27 30 67 3
98 -27 31 -25 48 12 106 79 124 97 207 58 257 -28 35 -76 47 -159 40 l-68 -6
-39 43 -39 42 -58 -7 -59 -6 4 127 3 128 -31 8 c-51 13 -78 74 -82 188 -4 83
-1 105 22 169 35 100 35 163 0 190 -15 12 -40 21 -55 21 -25 0 -29 4 -29 28 0
15 15 50 33 77 17 26 40 60 49 74 11 15 18 45 18 71 0 73 -41 120 -147 166
-78 34 -91 48 -99 103 -9 63 -24 89 -84 146 -68 66 -74 81 -54 160 19 76 15
95 -23 95 -42 0 -90 34 -115 82 -33 64 -37 229 -9 421 28 190 37 218 80 238
58 27 64 53 30 139 -31 79 -38 139 -16 141 6 1 35 2 62 3 49 1 50 2 53 33 2
19 -7 51 -23 83 -31 62 -28 78 39 179 70 104 323 341 600 560 330 261 413 328
510 419 439 409 711 865 890 1490 49 168 95 292 174 467 89 197 152 423 152
545 0 104 -19 118 -106 75z m-5766 -3939 c91 -48 218 -258 262 -433 27 -108
27 -272 0 -379 -32 -125 -63 -180 -155 -269 -184 -180 -365 -235 -778 -235
-281 0 -681 97 -828 200 -32 23 -92 56 -134 75 -71 33 -75 36 -75 67 0 137
136 469 274 667 82 119 220 252 244 237 6 -3 2 -36 -10 -78 -17 -62 -19 -94
-14 -218 12 -352 155 -688 329 -773 105 -51 172 -62 392 -61 221 0 298 14 420
74 156 76 265 268 265 466 0 137 -66 384 -132 494 -12 19 -43 65 -70 101 -26
37 -48 69 -48 73 0 11 30 7 58 -8z m-409 -241 c36 -18 79 -69 87 -102 10 -38
-13 -98 -47 -127 -46 -39 -101 -36 -144 7 -47 47 -62 107 -40 164 25 66 84 90
144 58z m-524 -58 c24 -24 35 -46 40 -79 18 -119 -44 -168 -150 -119 -102 47
-128 139 -55 191 68 48 121 51 165 7z m-9773 -3314 c26 -24 23 -96 -7 -161
-29 -62 -48 -65 -76 -12 -52 96 15 235 83 173z m10678 -214 c95 -22 122 -83
91 -211 -28 -120 -105 -345 -253 -741 -71 -192 -128 -351 -125 -353 9 -9 1682
-474 1692 -470 5 2 179 331 385 731 271 526 387 741 417 775 75 83 275 207
403 250 43 15 89 22 137 22 116 -1 178 -43 177 -121 0 -41 -10 -68 -400 -1125
-156 -423 -283 -770 -282 -770 2 -1 60 -29 131 -64 233 -116 423 -257 612
-453 156 -162 246 -301 301 -464 23 -67 27 -98 28 -195 1 -106 -1 -118 -23
-149 -56 -78 -178 -101 -421 -81 -263 21 -549 82 -851 180 -84 27 -156 46
-160 42 -4 -4 -96 -317 -204 -697 -109 -379 -200 -695 -202 -702 -3 -7 13 -16
39 -23 133 -34 593 -166 684 -196 299 -99 527 -237 734 -444 252 -251 410
-547 410 -767 0 -88 -15 -127 -64 -170 -59 -52 -128 -68 -291 -67 -219 2 -484
50 -775 140 -91 29 -724 265 -997 373 l-53 21 -48 -103 c-102 -216 -238 -404
-426 -592 -241 -240 -460 -355 -674 -355 -133 0 -204 57 -238 192 -23 88 -14
297 21 488 26 143 117 511 173 705 16 55 27 103 23 107 -3 3 -58 27 -121 53
-162 66 -673 293 -976 434 -160 75 -257 115 -259 108 -2 -7 -56 -218 -119
-469 -92 -369 -124 -480 -163 -570 -56 -132 -149 -290 -241 -415 -84 -113
-311 -339 -427 -426 -103 -77 -282 -170 -370 -192 -70 -18 -187 -20 -218 -4
-52 27 -88 74 -109 144 -74 237 26 675 428 1884 101 305 183 555 181 556 -1 1
-125 64 -276 141 -277 139 -389 207 -490 292 -119 102 -217 250 -246 373 -44
189 13 303 144 285 45 -6 604 -190 956 -315 110 -39 203 -71 207 -71 22 0 300
627 508 1145 102 254 180 457 180 471 0 6 -51 32 -112 59 -519 219 -1075 485
-1256 599 -163 103 -320 226 -419 329 -148 153 -211 270 -220 407 -7 125 41
186 145 184 90 -2 508 -149 1595 -561 356 -135 649 -244 651 -242 2 2 45 83
96 179 192 361 264 487 315 555 103 137 243 259 356 309 47 20 79 29 184 50
36 7 59 6 105 -5z m-9862 -296 c5 -31 -58 -74 -163 -112 -105 -38 -241 -73
-267 -69 -17 3 -16 7 16 44 75 88 248 166 356 162 48 -3 55 -6 58 -25z m-905
-473 c18 -15 40 -20 81 -20 44 0 56 -3 56 -16 0 -77 -148 -127 -205 -69 -29
29 -33 79 -8 107 21 23 44 23 76 -2z m-241 -697 c4 -35 37 -42 63 -13 20 22
74 27 92 9 19 -19 -10 -62 -71 -104 -54 -37 -57 -38 -125 -32 -88 7 -141 31
-141 62 0 27 19 45 85 78 68 35 93 35 97 0z m1608 -1548 c0 -34 -121 -204
-196 -275 -46 -45 -47 -45 -39 -15 9 42 104 181 165 243 46 46 70 63 70 47z
m370 -618 c45 -22 32 -49 -42 -84 -38 -18 -76 -45 -89 -62 -13 -17 -30 -31
-38 -31 -9 0 -32 18 -52 39 -35 39 -45 44 -121 56 -47 7 -48 19 -5 45 85 53
272 72 347 37z m690 -11 c0 -32 -100 -99 -274 -187 -188 -94 -241 -110 -241
-74 0 25 94 89 246 169 183 97 269 126 269 92z m-660 -321 c24 -29 1 -43 -218
-124 -258 -96 -402 -123 -410 -78 -16 81 318 214 539 216 56 1 80 -3 89 -14z
m-1363 -56 c63 -58 99 -69 247 -80 331 -24 378 -33 384 -75 6 -44 -103 -75
-383 -108 -263 -32 -376 -40 -394 -28 -11 8 -6 35 24 153 39 153 49 179 67
179 6 0 31 -18 55 -41z m1313 -304 c0 -24 -88 -61 -221 -94 -130 -32 -193 -38
-204 -21 -8 12 7 18 175 71 154 48 232 68 243 62 4 -2 7 -11 7 -18z"/>
<path d="M13170 8054 c-15 -37 -98 -311 -305 -999 -173 -572 -185 -620 -169
-632 47 -34 489 -166 1242 -372 250 -68 254 -68 262 -47 4 11 134 333 289 715
155 381 281 696 281 700 0 3 -305 131 -678 284 -372 153 -730 300 -795 327
l-118 49 -9 -25z"/>
</g>
</svg>
